<?xml version="1.0" encoding="UTF-8"?>
<svg width="101px" height="126px" viewBox="0 0 101 126" version="1.1" xmlns="http://www.w3.org/2000/svg" xmlns:xlink="http://www.w3.org/1999/xlink">
    <title>btn_load_more</title>
    <defs>
        <radialGradient cx="50%" cy="50%" fx="50%" fy="50%" r="129.103132%" gradientTransform="translate(0.500000,0.500000),rotate(-162.936854),scale(1.000000,0.995586),translate(-0.500000,-0.500000)" id="radialGradient-1">
            <stop stop-color="#6C6C6C" offset="0.0765413851%"></stop>
            <stop stop-color="#000000" offset="100%"></stop>
        </radialGradient>
    </defs>
    <g id="Page-1" stroke="none" stroke-width="1" fill="none" fill-rule="evenodd">
        <g id="feed" transform="translate(-819.000000, -2187.000000)">
            <g id="Group-5" transform="translate(670.000000, 2187.000000)">
                <g id="btn_load_more" transform="translate(149.000000, 0.000000)">
                    <g id="Group">
                        <circle id="Oval" fill="url(#radialGradient-1)" cx="50.5" cy="50.5" r="50.5"></circle>
                        <g transform="translate(35.000000, 34.000000)" stroke="#FFFFFF" stroke-linecap="round" stroke-linejoin="round" stroke-width="2">
                            <polyline id="Path" transform="translate(15.360000, 15.360000) rotate(-45.000000) translate(-15.360000, -15.360000) " points="26.16 26.16 4.56 26.16 4.56 4.56"></polyline>
                            <line x1="15.36" y1="28.32" x2="15.36" y2="0.96" id="Line-2"></line>
                        </g>
                    </g>
                    <path d="M7.28498074,125.756428 L7.28498074,123.612991 L2.21437741,123.612991 L2.21437741,114.243572 L0,114.243572 L0,125.756428 L7.28498074,125.756428 Z M14.5860077,126 C17.6829268,126 20.4428755,123.710419 20.4428755,120.008119 C20.4428755,116.289581 17.6829268,114 14.5860077,114 C11.5051348,114 8.74518614,116.289581 8.74518614,120.008119 C8.74518614,123.710419 11.5051348,126 14.5860077,126 Z M14.5860077,123.824087 C12.8369705,123.824087 11.0397946,122.589986 11.0397946,119.991881 C11.0397946,117.393775 12.8369705,116.159675 14.5860077,116.159675 C16.3510911,116.159675 18.148267,117.393775 18.148267,119.991881 C18.148267,122.589986 16.3510911,123.824087 14.5860077,123.824087 Z M23.8286264,125.756428 L24.775353,123.125846 L29.3966624,123.125846 L30.343389,125.756428 L32.7503209,125.756428 L28.4178434,114.243572 L25.8504493,114.243572 L21.4858793,125.756428 L23.8286264,125.756428 Z M28.6585366,121.079838 L25.5134788,121.079838 L27.0860077,116.728011 L28.6585366,121.079838 Z M39.0725289,125.756428 C42.3138639,125.756428 44.7047497,123.645467 44.7047497,120.008119 C44.7047497,116.370771 42.3299101,114.243572 39.0885751,114.243572 L35.012837,114.243572 L35.012837,125.756428 L39.0725289,125.756428 Z M38.9922978,123.677943 L37.2272144,123.677943 L37.2272144,116.322057 L39.008344,116.322057 C40.8697047,116.322057 42.4101412,117.507442 42.4101412,120.008119 C42.4101412,122.508796 40.8536585,123.677943 38.9922978,123.677943 Z M54.3164313,125.756428 L54.3164313,117.751015 L57.5898588,125.756428 L59.4351733,125.756428 L62.7086008,117.686062 L62.7086008,125.756428 L64.8908858,125.756428 L64.8908858,114.243572 L61.8741977,114.243572 L58.5365854,122.55751 L55.118742,114.243572 L52.1983312,114.243572 L52.1983312,125.756428 L54.3164313,125.756428 Z M73.4595635,126 C76.5564827,126 79.3164313,123.710419 79.3164313,120.008119 C79.3164313,116.289581 76.5564827,114 73.4595635,114 C70.3786906,114 67.618742,116.289581 67.618742,120.008119 C67.618742,123.710419 70.3786906,126 73.4595635,126 Z M73.4595635,123.824087 C71.7105263,123.824087 69.9133504,122.589986 69.9133504,119.991881 C69.9133504,117.393775 71.7105263,116.159675 73.4595635,116.159675 C75.224647,116.159675 77.0218228,117.393775 77.0218228,119.991881 C77.0218228,122.589986 75.224647,123.824087 73.4595635,123.824087 Z M84.2747112,125.756428 L84.2747112,121.32341 L85.4300385,121.32341 L87.6604621,125.756428 L90.1315789,125.756428 L87.6925546,121.047361 C89.1848524,120.608931 90.1155327,119.391069 90.1155327,117.783491 C90.1155327,115.786198 88.703466,114.243572 86.4890886,114.243572 L82.0442875,114.243572 L82.0442875,125.756428 L84.2747112,125.756428 Z M86.071887,119.391069 L84.2747112,119.391069 L84.2747112,116.192152 L86.071887,116.192152 C87.195122,116.192152 87.8530167,116.82544 87.8530167,117.799729 C87.8530167,118.741543 87.195122,119.391069 86.071887,119.391069 Z M100,125.756428 L100,123.645467 L95.0898588,123.645467 L95.0898588,120.982409 L99.5346598,120.982409 L99.5346598,118.985115 L95.0898588,118.985115 L95.0898588,116.354533 L100,116.354533 L100,114.243572 L92.8754814,114.243572 L92.8754814,125.756428 L100,125.756428 Z" id="LOADMORE" fill="#000802" fill-rule="nonzero"></path>
                </g>
            </g>
        </g>
    </g>
</svg>